<svg width="124" height="46" viewBox="0 0 124 46" fill="none" xmlns="http://www.w3.org/2000/svg">
<circle cx="3.26316" cy="3.26316" r="3.26316" fill="#FFC700" fill-opacity="0.2"/>
<circle cx="16.3159" cy="3.26316" r="3.26316" fill="#FFC700" fill-opacity="0.2"/>
<circle cx="29.3686" cy="3.26316" r="3.26316" fill="#FFC700" fill-opacity="0.2"/>
<circle cx="42.4209" cy="3.26316" r="3.26316" fill="#FFC700" fill-opacity="0.2"/>
<circle cx="55.4736" cy="3.26316" r="3.26316" fill="#FFC700" fill-opacity="0.2"/>
<circle cx="68.5263" cy="3.26316" r="3.26316" fill="#FFC700" fill-opacity="0.2"/>
<circle cx="81.5791" cy="3.26316" r="3.26316" fill="#FFC700" fill-opacity="0.2"/>
<circle cx="94.6318" cy="3.26316" r="3.26316" fill="#FFC700" fill-opacity="0.2"/>
<circle cx="107.684" cy="3.26316" r="3.26316" fill="#FFC700" fill-opacity="0.2"/>
<circle cx="120.737" cy="3.26316" r="3.26316" fill="#FFC700" fill-opacity="0.2"/>
<circle cx="3.26316" cy="16.3158" r="3.26316" fill="#FFC700" fill-opacity="0.2"/>
<circle cx="16.3159" cy="16.3158" r="3.26316" fill="#FFC700" fill-opacity="0.2"/>
<circle cx="29.3686" cy="16.3158" r="3.26316" fill="#FFC700" fill-opacity="0.2"/>
<circle cx="42.4209" cy="16.3158" r="3.26316" fill="#FFC700" fill-opacity="0.2"/>
<circle cx="55.4736" cy="16.3158" r="3.26316" fill="#FFC700" fill-opacity="0.2"/>
<circle cx="68.5263" cy="16.3158" r="3.26316" fill="#FFC700" fill-opacity="0.2"/>
<circle cx="81.5791" cy="16.3158" r="3.26316" fill="#FFC700" fill-opacity="0.2"/>
<circle cx="94.6318" cy="16.3158" r="3.26316" fill="#FFC700" fill-opacity="0.2"/>
<circle cx="107.684" cy="16.3158" r="3.26316" fill="#FFC700" fill-opacity="0.2"/>
<circle cx="120.737" cy="16.3158" r="3.26316" fill="#FFC700" fill-opacity="0.2"/>
<circle cx="3.26316" cy="29.2632" r="3.26316" fill="#FFC700" fill-opacity="0.2"/>
<circle cx="16.3159" cy="29.2632" r="3.26316" fill="#FFC700" fill-opacity="0.2"/>
<circle cx="29.3686" cy="29.2632" r="3.26316" fill="#FFC700" fill-opacity="0.2"/>
<circle cx="42.4209" cy="29.2632" r="3.26316" fill="#FFC700" fill-opacity="0.2"/>
<circle cx="55.4736" cy="29.2632" r="3.26316" fill="#FFC700" fill-opacity="0.2"/>
<circle cx="68.5263" cy="29.2632" r="3.26316" fill="#FFC700" fill-opacity="0.2"/>
<circle cx="81.5791" cy="29.2632" r="3.26316" fill="#FFC700" fill-opacity="0.2"/>
<circle cx="94.6318" cy="29.2632" r="3.26316" fill="#FFC700" fill-opacity="0.2"/>
<circle cx="107.684" cy="29.2632" r="3.26316" fill="#FFC700" fill-opacity="0.2"/>
<circle cx="120.737" cy="29.2632" r="3.26316" fill="#FFC700" fill-opacity="0.2"/>
<circle cx="3.26316" cy="42.3158" r="3.26316" fill="#FFC700" fill-opacity="0.2"/>
<circle cx="16.3159" cy="42.3158" r="3.26316" fill="#FFC700" fill-opacity="0.2"/>
<circle cx="29.3686" cy="42.3158" r="3.26316" fill="#FFC700" fill-opacity="0.2"/>
<circle cx="42.4209" cy="42.3158" r="3.26316" fill="#FFC700" fill-opacity="0.2"/>
<circle cx="55.4736" cy="42.3158" r="3.26316" fill="#FFC700" fill-opacity="0.2"/>
<circle cx="68.5263" cy="42.3158" r="3.26316" fill="#FFC700" fill-opacity="0.2"/>
<circle cx="81.5791" cy="42.3158" r="3.26316" fill="#FFC700" fill-opacity="0.2"/>
<circle cx="94.6318" cy="42.3158" r="3.26316" fill="#FFC700" fill-opacity="0.2"/>
<circle cx="107.684" cy="42.3158" r="3.26316" fill="#FFC700" fill-opacity="0.2"/>
<circle cx="120.737" cy="42.3158" r="3.26316" fill="#FFC700" fill-opacity="0.2"/>
</svg>
