<svg width="800" height="800" viewBox="0 0 800 800" fill="none" xmlns="http://www.w3.org/2000/svg">
<g clip-path="url(#clip0_1272_62)">
<path d="M22.2804 -31.6623H-22.1641V12.7822H22.2804V-31.6623Z" stroke="#616161" stroke-opacity="0.3" stroke-width="0.630746"/>
<path d="M66.7247 -31.6622H22.2803V12.7823H66.7247V-31.6622Z" stroke="#616161" stroke-opacity="0.3" stroke-width="0.630746"/>
<path d="M111.169 -31.6622H66.7246V12.7823H111.169V-31.6622Z" stroke="#616161" stroke-opacity="0.3" stroke-width="0.630746"/>
<path d="M155.613 -31.6622H111.169V12.7823H155.613V-31.6622Z" stroke="#616161" stroke-opacity="0.3" stroke-width="0.630746"/>
<path d="M200.058 -31.6622H155.613V12.7823H200.058V-31.6622Z" stroke="#616161" stroke-opacity="0.3" stroke-width="0.630746"/>
<path d="M244.503 -31.6622H200.059V12.7823H244.503V-31.6622Z" stroke="#616161" stroke-opacity="0.3" stroke-width="0.630746"/>
<path d="M288.947 -31.6622H244.503V12.7823H288.947V-31.6622Z" stroke="#616161" stroke-opacity="0.3" stroke-width="0.630746"/>
<path d="M333.392 -31.6622H288.947V12.7823H333.392V-31.6622Z" stroke="#616161" stroke-opacity="0.3" stroke-width="0.630746"/>
<path d="M377.836 -31.6622H333.392V12.7823H377.836V-31.6622Z" stroke="#616161" stroke-opacity="0.3" stroke-width="0.630746"/>
<path d="M422.28 -31.6622H377.836V12.7823H422.28V-31.6622Z" stroke="#616161" stroke-opacity="0.3" stroke-width="0.630746"/>
<path d="M466.725 -31.6622H422.28V12.7823H466.725V-31.6622Z" stroke="#616161" stroke-opacity="0.3" stroke-width="0.630746"/>
<path d="M511.169 -31.6622H466.725V12.7823H511.169V-31.6622Z" stroke="#616161" stroke-opacity="0.3" stroke-width="0.630746"/>
<path d="M555.613 -31.6622H511.169V12.7823H555.613V-31.6622Z" stroke="#616161" stroke-opacity="0.3" stroke-width="0.630746"/>
<path d="M600.059 -31.6622H555.614V12.7823H600.059V-31.6622Z" stroke="#616161" stroke-opacity="0.3" stroke-width="0.630746"/>
<path d="M644.503 -31.6622H600.059V12.7823H644.503V-31.6622Z" stroke="#616161" stroke-opacity="0.3" stroke-width="0.630746"/>
<path d="M688.947 -31.6622H644.503V12.7823H688.947V-31.6622Z" stroke="#616161" stroke-opacity="0.3" stroke-width="0.630746"/>
<path d="M733.392 -31.6622H688.947V12.7823H733.392V-31.6622Z" stroke="#616161" stroke-opacity="0.3" stroke-width="0.630746"/>
<path d="M777.836 -31.6622H733.392V12.7823H777.836V-31.6622Z" stroke="#616161" stroke-opacity="0.3" stroke-width="0.630746"/>
<path d="M822.28 -31.6622H777.836V12.7823H822.28V-31.6622Z" stroke="#616161" stroke-opacity="0.3" stroke-width="0.630746"/>
<path d="M22.2804 12.7823H-22.1641V57.2268H22.2804V12.7823Z" stroke="#616161" stroke-opacity="0.3" stroke-width="0.630746"/>
<path d="M66.7247 12.7823H22.2803V57.2268H66.7247V12.7823Z" stroke="#616161" stroke-opacity="0.3" stroke-width="0.630746"/>
<path d="M111.169 12.7823H66.7246V57.2268H111.169V12.7823Z" stroke="#616161" stroke-opacity="0.3" stroke-width="0.630746"/>
<path d="M155.613 12.7823H111.169V57.2268H155.613V12.7823Z" stroke="#616161" stroke-opacity="0.3" stroke-width="0.630746"/>
<path d="M200.058 12.7823H155.613V57.2268H200.058V12.7823Z" stroke="#616161" stroke-opacity="0.3" stroke-width="0.630746"/>
<path d="M244.503 12.7823H200.059V57.2268H244.503V12.7823Z" stroke="#616161" stroke-opacity="0.3" stroke-width="0.630746"/>
<path d="M288.947 12.7823H244.503V57.2268H288.947V12.7823Z" stroke="#616161" stroke-opacity="0.3" stroke-width="0.630746"/>
<path d="M333.392 12.7823H288.947V57.2268H333.392V12.7823Z" stroke="#616161" stroke-opacity="0.3" stroke-width="0.630746"/>
<path d="M377.836 12.7823H333.392V57.2268H377.836V12.7823Z" stroke="#616161" stroke-opacity="0.3" stroke-width="0.630746"/>
<path d="M422.28 12.7823H377.836V57.2268H422.28V12.7823Z" stroke="#616161" stroke-opacity="0.3" stroke-width="0.630746"/>
<path d="M466.725 12.7823H422.28V57.2268H466.725V12.7823Z" stroke="#616161" stroke-opacity="0.3" stroke-width="0.630746"/>
<path d="M511.169 12.7823H466.725V57.2268H511.169V12.7823Z" stroke="#616161" stroke-opacity="0.3" stroke-width="0.630746"/>
<path d="M555.613 12.7823H511.169V57.2268H555.613V12.7823Z" stroke="#616161" stroke-opacity="0.3" stroke-width="0.630746"/>
<path d="M600.059 12.7823H555.614V57.2268H600.059V12.7823Z" stroke="#616161" stroke-opacity="0.3" stroke-width="0.630746"/>
<path d="M644.503 12.7823H600.059V57.2268H644.503V12.7823Z" stroke="#616161" stroke-opacity="0.3" stroke-width="0.630746"/>
<path d="M688.947 12.7823H644.503V57.2268H688.947V12.7823Z" stroke="#616161" stroke-opacity="0.3" stroke-width="0.630746"/>
<path d="M733.392 12.7823H688.947V57.2268H733.392V12.7823Z" stroke="#616161" stroke-opacity="0.3" stroke-width="0.630746"/>
<path d="M777.836 12.7823H733.392V57.2268H777.836V12.7823Z" stroke="#616161" stroke-opacity="0.3" stroke-width="0.630746"/>
<path d="M822.28 12.7823H777.836V57.2268H822.28V12.7823Z" stroke="#616161" stroke-opacity="0.3" stroke-width="0.630746"/>
<path d="M22.2804 57.2267H-22.1641V101.671H22.2804V57.2267Z" stroke="#616161" stroke-opacity="0.3" stroke-width="0.630746"/>
<path d="M66.7247 57.2267H22.2803V101.671H66.7247V57.2267Z" stroke="#616161" stroke-opacity="0.3" stroke-width="0.630746"/>
<path d="M111.169 57.2267H66.7246V101.671H111.169V57.2267Z" stroke="#616161" stroke-opacity="0.3" stroke-width="0.630746"/>
<path d="M155.613 57.2267H111.169V101.671H155.613V57.2267Z" stroke="#616161" stroke-opacity="0.3" stroke-width="0.630746"/>
<path d="M200.058 57.2267H155.613V101.671H200.058V57.2267Z" stroke="#616161" stroke-opacity="0.3" stroke-width="0.630746"/>
<path d="M244.503 57.2267H200.059V101.671H244.503V57.2267Z" stroke="#616161" stroke-opacity="0.3" stroke-width="0.630746"/>
<path d="M288.947 57.2267H244.503V101.671H288.947V57.2267Z" stroke="#616161" stroke-opacity="0.3" stroke-width="0.630746"/>
<path d="M333.392 57.2267H288.947V101.671H333.392V57.2267Z" stroke="#616161" stroke-opacity="0.3" stroke-width="0.630746"/>
<path d="M377.836 57.2267H333.392V101.671H377.836V57.2267Z" stroke="#616161" stroke-opacity="0.3" stroke-width="0.630746"/>
<path d="M422.28 57.2267H377.836V101.671H422.28V57.2267Z" stroke="#616161" stroke-opacity="0.3" stroke-width="0.630746"/>
<path d="M466.725 57.2267H422.28V101.671H466.725V57.2267Z" stroke="#616161" stroke-opacity="0.3" stroke-width="0.630746"/>
<path d="M511.169 57.2267H466.725V101.671H511.169V57.2267Z" stroke="#616161" stroke-opacity="0.3" stroke-width="0.630746"/>
<path d="M555.613 57.2267H511.169V101.671H555.613V57.2267Z" stroke="#616161" stroke-opacity="0.3" stroke-width="0.630746"/>
<path d="M600.059 57.2267H555.614V101.671H600.059V57.2267Z" stroke="#616161" stroke-opacity="0.3" stroke-width="0.630746"/>
<path d="M644.503 57.2267H600.059V101.671H644.503V57.2267Z" stroke="#616161" stroke-opacity="0.3" stroke-width="0.630746"/>
<path d="M688.947 57.2267H644.503V101.671H688.947V57.2267Z" stroke="#616161" stroke-opacity="0.3" stroke-width="0.630746"/>
<path d="M733.392 57.2267H688.947V101.671H733.392V57.2267Z" stroke="#616161" stroke-opacity="0.3" stroke-width="0.630746"/>
<path d="M777.836 57.2267H733.392V101.671H777.836V57.2267Z" stroke="#616161" stroke-opacity="0.3" stroke-width="0.630746"/>
<path d="M822.28 57.2267H777.836V101.671H822.28V57.2267Z" stroke="#616161" stroke-opacity="0.3" stroke-width="0.630746"/>
<path d="M22.2804 101.671H-22.1641V146.116H22.2804V101.671Z" stroke="#616161" stroke-opacity="0.3" stroke-width="0.630746"/>
<path d="M66.7247 101.671H22.2803V146.116H66.7247V101.671Z" stroke="#616161" stroke-opacity="0.3" stroke-width="0.630746"/>
<path d="M111.169 101.671H66.7246V146.116H111.169V101.671Z" stroke="#616161" stroke-opacity="0.3" stroke-width="0.630746"/>
<path d="M155.613 101.671H111.169V146.116H155.613V101.671Z" stroke="#616161" stroke-opacity="0.3" stroke-width="0.630746"/>
<path d="M200.058 101.671H155.613V146.116H200.058V101.671Z" stroke="#616161" stroke-opacity="0.3" stroke-width="0.630746"/>
<path d="M244.503 101.671H200.059V146.116H244.503V101.671Z" stroke="#616161" stroke-opacity="0.3" stroke-width="0.630746"/>
<path d="M288.947 101.671H244.503V146.116H288.947V101.671Z" stroke="#616161" stroke-opacity="0.3" stroke-width="0.630746"/>
<path d="M333.392 101.671H288.947V146.116H333.392V101.671Z" stroke="#616161" stroke-opacity="0.3" stroke-width="0.630746"/>
<path d="M377.836 101.671H333.392V146.116H377.836V101.671Z" stroke="#616161" stroke-opacity="0.3" stroke-width="0.630746"/>
<path d="M422.28 101.671H377.836V146.116H422.28V101.671Z" stroke="#616161" stroke-opacity="0.3" stroke-width="0.630746"/>
<path d="M466.725 101.671H422.28V146.116H466.725V101.671Z" stroke="#616161" stroke-opacity="0.3" stroke-width="0.630746"/>
<path d="M511.169 101.671H466.725V146.116H511.169V101.671Z" stroke="#616161" stroke-opacity="0.3" stroke-width="0.630746"/>
<path d="M555.613 101.671H511.169V146.116H555.613V101.671Z" stroke="#616161" stroke-opacity="0.3" stroke-width="0.630746"/>
<path d="M600.059 101.671H555.614V146.116H600.059V101.671Z" stroke="#616161" stroke-opacity="0.3" stroke-width="0.630746"/>
<path d="M644.503 101.671H600.059V146.116H644.503V101.671Z" stroke="#616161" stroke-opacity="0.3" stroke-width="0.630746"/>
<path d="M688.947 101.671H644.503V146.116H688.947V101.671Z" stroke="#616161" stroke-opacity="0.3" stroke-width="0.630746"/>
<path d="M733.392 101.671H688.947V146.116H733.392V101.671Z" stroke="#616161" stroke-opacity="0.3" stroke-width="0.630746"/>
<path d="M777.836 101.671H733.392V146.116H777.836V101.671Z" stroke="#616161" stroke-opacity="0.3" stroke-width="0.630746"/>
<path d="M822.28 101.671H777.836V146.116H822.28V101.671Z" stroke="#616161" stroke-opacity="0.3" stroke-width="0.630746"/>
<path d="M22.2804 146.116H-22.1641V190.56H22.2804V146.116Z" stroke="#616161" stroke-opacity="0.3" stroke-width="0.630746"/>
<path d="M66.7247 146.116H22.2803V190.56H66.7247V146.116Z" stroke="#616161" stroke-opacity="0.3" stroke-width="0.630746"/>
<path d="M111.169 146.116H66.7246V190.56H111.169V146.116Z" stroke="#616161" stroke-opacity="0.3" stroke-width="0.630746"/>
<path d="M155.613 146.116H111.169V190.56H155.613V146.116Z" stroke="#616161" stroke-opacity="0.3" stroke-width="0.630746"/>
<path d="M200.058 146.116H155.613V190.56H200.058V146.116Z" stroke="#616161" stroke-opacity="0.3" stroke-width="0.630746"/>
<path d="M244.503 146.116H200.059V190.56H244.503V146.116Z" stroke="#616161" stroke-opacity="0.3" stroke-width="0.630746"/>
<path d="M288.947 146.116H244.503V190.56H288.947V146.116Z" stroke="#616161" stroke-opacity="0.3" stroke-width="0.630746"/>
<path d="M333.392 146.116H288.947V190.56H333.392V146.116Z" stroke="#616161" stroke-opacity="0.3" stroke-width="0.630746"/>
<path d="M377.836 146.116H333.392V190.56H377.836V146.116Z" stroke="#616161" stroke-opacity="0.3" stroke-width="0.630746"/>
<path d="M422.28 146.116H377.836V190.56H422.28V146.116Z" stroke="#616161" stroke-opacity="0.3" stroke-width="0.630746"/>
<path d="M466.725 146.116H422.28V190.56H466.725V146.116Z" stroke="#616161" stroke-opacity="0.3" stroke-width="0.630746"/>
<path d="M511.169 146.116H466.725V190.56H511.169V146.116Z" stroke="#616161" stroke-opacity="0.3" stroke-width="0.630746"/>
<path d="M555.613 146.116H511.169V190.56H555.613V146.116Z" stroke="#616161" stroke-opacity="0.3" stroke-width="0.630746"/>
<path d="M600.059 146.116H555.614V190.56H600.059V146.116Z" stroke="#616161" stroke-opacity="0.3" stroke-width="0.630746"/>
<path d="M644.503 146.116H600.059V190.56H644.503V146.116Z" stroke="#616161" stroke-opacity="0.3" stroke-width="0.630746"/>
<path d="M688.947 146.116H644.503V190.56H688.947V146.116Z" stroke="#616161" stroke-opacity="0.3" stroke-width="0.630746"/>
<path d="M733.392 146.116H688.947V190.56H733.392V146.116Z" stroke="#616161" stroke-opacity="0.3" stroke-width="0.630746"/>
<path d="M777.836 146.116H733.392V190.56H777.836V146.116Z" stroke="#616161" stroke-opacity="0.3" stroke-width="0.630746"/>
<path d="M822.28 146.116H777.836V190.56H822.28V146.116Z" stroke="#616161" stroke-opacity="0.3" stroke-width="0.630746"/>
<path d="M22.2804 190.56H-22.1641V235.004H22.2804V190.56Z" stroke="#616161" stroke-opacity="0.3" stroke-width="0.630746"/>
<path d="M66.7247 190.56H22.2803V235.004H66.7247V190.56Z" stroke="#616161" stroke-opacity="0.3" stroke-width="0.630746"/>
<path d="M111.169 190.56H66.7246V235.004H111.169V190.56Z" stroke="#616161" stroke-opacity="0.3" stroke-width="0.630746"/>
<path d="M155.613 190.56H111.169V235.004H155.613V190.56Z" stroke="#616161" stroke-opacity="0.3" stroke-width="0.630746"/>
<path d="M200.058 190.56H155.613V235.004H200.058V190.56Z" stroke="#616161" stroke-opacity="0.3" stroke-width="0.630746"/>
<path d="M244.503 190.56H200.059V235.004H244.503V190.56Z" stroke="#616161" stroke-opacity="0.3" stroke-width="0.630746"/>
<path d="M288.947 190.56H244.503V235.004H288.947V190.56Z" stroke="#616161" stroke-opacity="0.3" stroke-width="0.630746"/>
<path d="M333.392 190.56H288.947V235.004H333.392V190.56Z" stroke="#616161" stroke-opacity="0.3" stroke-width="0.630746"/>
<path d="M377.836 190.56H333.392V235.004H377.836V190.56Z" stroke="#616161" stroke-opacity="0.3" stroke-width="0.630746"/>
<path d="M422.28 190.56H377.836V235.004H422.28V190.56Z" stroke="#616161" stroke-opacity="0.3" stroke-width="0.630746"/>
<path d="M466.725 190.56H422.28V235.004H466.725V190.56Z" stroke="#616161" stroke-opacity="0.3" stroke-width="0.630746"/>
<path d="M511.169 190.56H466.725V235.004H511.169V190.56Z" stroke="#616161" stroke-opacity="0.3" stroke-width="0.630746"/>
<path d="M555.613 190.56H511.169V235.004H555.613V190.56Z" stroke="#616161" stroke-opacity="0.3" stroke-width="0.630746"/>
<path d="M600.059 190.56H555.614V235.004H600.059V190.56Z" stroke="#616161" stroke-opacity="0.3" stroke-width="0.630746"/>
<path d="M644.503 190.56H600.059V235.004H644.503V190.56Z" stroke="#616161" stroke-opacity="0.3" stroke-width="0.630746"/>
<path d="M688.947 190.56H644.503V235.004H688.947V190.56Z" stroke="#616161" stroke-opacity="0.3" stroke-width="0.630746"/>
<path d="M733.392 190.56H688.947V235.004H733.392V190.56Z" stroke="#616161" stroke-opacity="0.3" stroke-width="0.630746"/>
<path d="M777.836 190.56H733.392V235.004H777.836V190.56Z" stroke="#616161" stroke-opacity="0.3" stroke-width="0.630746"/>
<path d="M822.28 190.56H777.836V235.004H822.28V190.56Z" stroke="#616161" stroke-opacity="0.3" stroke-width="0.630746"/>
<path d="M22.2804 235.004H-22.1641V279.449H22.2804V235.004Z" stroke="#616161" stroke-opacity="0.3" stroke-width="0.630746"/>
<path d="M66.7247 235.004H22.2803V279.449H66.7247V235.004Z" stroke="#616161" stroke-opacity="0.3" stroke-width="0.630746"/>
<path d="M111.169 235.004H66.7246V279.449H111.169V235.004Z" stroke="#616161" stroke-opacity="0.3" stroke-width="0.630746"/>
<path d="M155.613 235.004H111.169V279.449H155.613V235.004Z" stroke="#616161" stroke-opacity="0.3" stroke-width="0.630746"/>
<path d="M200.058 235.004H155.613V279.449H200.058V235.004Z" stroke="#616161" stroke-opacity="0.3" stroke-width="0.630746"/>
<path d="M244.503 235.004H200.059V279.449H244.503V235.004Z" stroke="#616161" stroke-opacity="0.3" stroke-width="0.630746"/>
<path d="M288.947 235.004H244.503V279.449H288.947V235.004Z" stroke="#616161" stroke-opacity="0.3" stroke-width="0.630746"/>
<path d="M333.392 235.004H288.947V279.449H333.392V235.004Z" stroke="#616161" stroke-opacity="0.3" stroke-width="0.630746"/>
<path d="M377.836 235.004H333.392V279.449H377.836V235.004Z" stroke="#616161" stroke-opacity="0.3" stroke-width="0.630746"/>
<path d="M422.28 235.004H377.836V279.449H422.28V235.004Z" stroke="#616161" stroke-opacity="0.3" stroke-width="0.630746"/>
<path d="M466.725 235.004H422.28V279.449H466.725V235.004Z" stroke="#616161" stroke-opacity="0.3" stroke-width="0.630746"/>
<path d="M511.169 235.004H466.725V279.449H511.169V235.004Z" stroke="#616161" stroke-opacity="0.3" stroke-width="0.630746"/>
<path d="M555.613 235.004H511.169V279.449H555.613V235.004Z" stroke="#616161" stroke-opacity="0.3" stroke-width="0.630746"/>
<path d="M600.059 235.004H555.614V279.449H600.059V235.004Z" stroke="#616161" stroke-opacity="0.3" stroke-width="0.630746"/>
<path d="M644.503 235.004H600.059V279.449H644.503V235.004Z" stroke="#616161" stroke-opacity="0.3" stroke-width="0.630746"/>
<path d="M688.947 235.004H644.503V279.449H688.947V235.004Z" stroke="#616161" stroke-opacity="0.3" stroke-width="0.630746"/>
<path d="M733.392 235.004H688.947V279.449H733.392V235.004Z" stroke="#616161" stroke-opacity="0.3" stroke-width="0.630746"/>
<path d="M777.836 235.004H733.392V279.449H777.836V235.004Z" stroke="#616161" stroke-opacity="0.3" stroke-width="0.630746"/>
<path d="M822.28 235.004H777.836V279.449H822.28V235.004Z" stroke="#616161" stroke-opacity="0.3" stroke-width="0.630746"/>
<path d="M22.2804 279.449H-22.1641V323.893H22.2804V279.449Z" stroke="#616161" stroke-opacity="0.3" stroke-width="0.630746"/>
<path d="M66.7247 279.449H22.2803V323.893H66.7247V279.449Z" stroke="#616161" stroke-opacity="0.3" stroke-width="0.630746"/>
<path d="M111.169 279.449H66.7246V323.893H111.169V279.449Z" stroke="#616161" stroke-opacity="0.3" stroke-width="0.630746"/>
<path d="M155.613 279.449H111.169V323.893H155.613V279.449Z" stroke="#616161" stroke-opacity="0.3" stroke-width="0.630746"/>
<path d="M200.058 279.449H155.613V323.893H200.058V279.449Z" stroke="#616161" stroke-opacity="0.3" stroke-width="0.630746"/>
<path d="M244.503 279.449H200.059V323.893H244.503V279.449Z" stroke="#616161" stroke-opacity="0.3" stroke-width="0.630746"/>
<path d="M288.947 279.449H244.503V323.893H288.947V279.449Z" stroke="#616161" stroke-opacity="0.3" stroke-width="0.630746"/>
<path d="M333.392 279.449H288.947V323.893H333.392V279.449Z" stroke="#616161" stroke-opacity="0.3" stroke-width="0.630746"/>
<path d="M377.836 279.449H333.392V323.893H377.836V279.449Z" stroke="#616161" stroke-opacity="0.3" stroke-width="0.630746"/>
<path d="M422.28 279.449H377.836V323.893H422.28V279.449Z" stroke="#616161" stroke-opacity="0.3" stroke-width="0.630746"/>
<path d="M466.725 279.449H422.28V323.893H466.725V279.449Z" stroke="#616161" stroke-opacity="0.3" stroke-width="0.630746"/>
<path d="M511.169 279.449H466.725V323.893H511.169V279.449Z" stroke="#616161" stroke-opacity="0.3" stroke-width="0.630746"/>
<path d="M555.613 279.449H511.169V323.893H555.613V279.449Z" stroke="#616161" stroke-opacity="0.3" stroke-width="0.630746"/>
<path d="M600.059 279.449H555.614V323.893H600.059V279.449Z" stroke="#616161" stroke-opacity="0.3" stroke-width="0.630746"/>
<path d="M644.503 279.449H600.059V323.893H644.503V279.449Z" stroke="#616161" stroke-opacity="0.3" stroke-width="0.630746"/>
<path d="M688.947 279.449H644.503V323.893H688.947V279.449Z" stroke="#616161" stroke-opacity="0.3" stroke-width="0.630746"/>
<path d="M733.392 279.449H688.947V323.893H733.392V279.449Z" stroke="#616161" stroke-opacity="0.3" stroke-width="0.630746"/>
<path d="M777.836 279.449H733.392V323.893H777.836V279.449Z" stroke="#616161" stroke-opacity="0.3" stroke-width="0.630746"/>
<path d="M822.28 279.449H777.836V323.893H822.28V279.449Z" stroke="#616161" stroke-opacity="0.3" stroke-width="0.630746"/>
<path d="M22.2804 323.893H-22.1641V368.338H22.2804V323.893Z" stroke="#616161" stroke-opacity="0.3" stroke-width="0.630746"/>
<path d="M66.7247 323.893H22.2803V368.338H66.7247V323.893Z" stroke="#616161" stroke-opacity="0.3" stroke-width="0.630746"/>
<path d="M111.169 323.893H66.7246V368.338H111.169V323.893Z" stroke="#616161" stroke-opacity="0.3" stroke-width="0.630746"/>
<path d="M155.613 323.893H111.169V368.338H155.613V323.893Z" stroke="#616161" stroke-opacity="0.3" stroke-width="0.630746"/>
<path d="M200.058 323.893H155.613V368.338H200.058V323.893Z" stroke="#616161" stroke-opacity="0.3" stroke-width="0.630746"/>
<path d="M244.503 323.893H200.059V368.338H244.503V323.893Z" stroke="#616161" stroke-opacity="0.3" stroke-width="0.630746"/>
<path d="M288.947 323.893H244.503V368.338H288.947V323.893Z" stroke="#616161" stroke-opacity="0.3" stroke-width="0.630746"/>
<path d="M333.392 323.893H288.947V368.338H333.392V323.893Z" stroke="#616161" stroke-opacity="0.3" stroke-width="0.630746"/>
<path d="M377.836 323.893H333.392V368.338H377.836V323.893Z" stroke="#616161" stroke-opacity="0.3" stroke-width="0.630746"/>
<path d="M422.28 323.893H377.836V368.338H422.28V323.893Z" stroke="#616161" stroke-opacity="0.3" stroke-width="0.630746"/>
<path d="M466.725 323.893H422.28V368.338H466.725V323.893Z" stroke="#616161" stroke-opacity="0.3" stroke-width="0.630746"/>
<path d="M511.169 323.893H466.725V368.338H511.169V323.893Z" stroke="#616161" stroke-opacity="0.3" stroke-width="0.630746"/>
<path d="M555.613 323.893H511.169V368.338H555.613V323.893Z" stroke="#616161" stroke-opacity="0.3" stroke-width="0.630746"/>
<path d="M600.059 323.893H555.614V368.338H600.059V323.893Z" stroke="#616161" stroke-opacity="0.3" stroke-width="0.630746"/>
<path d="M644.503 323.893H600.059V368.338H644.503V323.893Z" stroke="#616161" stroke-opacity="0.3" stroke-width="0.630746"/>
<path d="M688.947 323.893H644.503V368.338H688.947V323.893Z" stroke="#616161" stroke-opacity="0.3" stroke-width="0.630746"/>
<path d="M733.392 323.893H688.947V368.338H733.392V323.893Z" stroke="#616161" stroke-opacity="0.3" stroke-width="0.630746"/>
<path d="M777.836 323.893H733.392V368.338H777.836V323.893Z" stroke="#616161" stroke-opacity="0.3" stroke-width="0.630746"/>
<path d="M822.28 323.893H777.836V368.338H822.28V323.893Z" stroke="#616161" stroke-opacity="0.3" stroke-width="0.630746"/>
<path d="M22.2804 368.338H-22.1641V412.782H22.2804V368.338Z" stroke="#616161" stroke-opacity="0.3" stroke-width="0.630746"/>
<path d="M66.7247 368.338H22.2803V412.782H66.7247V368.338Z" stroke="#616161" stroke-opacity="0.3" stroke-width="0.630746"/>
<path d="M111.169 368.338H66.7246V412.782H111.169V368.338Z" stroke="#616161" stroke-opacity="0.3" stroke-width="0.630746"/>
<path d="M155.613 368.338H111.169V412.782H155.613V368.338Z" stroke="#616161" stroke-opacity="0.3" stroke-width="0.630746"/>
<path d="M200.058 368.338H155.613V412.782H200.058V368.338Z" stroke="#616161" stroke-opacity="0.3" stroke-width="0.630746"/>
<path d="M244.503 368.338H200.059V412.782H244.503V368.338Z" stroke="#616161" stroke-opacity="0.3" stroke-width="0.630746"/>
<path d="M288.947 368.338H244.503V412.782H288.947V368.338Z" stroke="#616161" stroke-opacity="0.3" stroke-width="0.630746"/>
<path d="M333.392 368.338H288.947V412.782H333.392V368.338Z" stroke="#616161" stroke-opacity="0.3" stroke-width="0.630746"/>
<path d="M377.836 368.338H333.392V412.782H377.836V368.338Z" stroke="#616161" stroke-opacity="0.3" stroke-width="0.630746"/>
<path d="M422.28 368.338H377.836V412.782H422.28V368.338Z" stroke="#616161" stroke-opacity="0.3" stroke-width="0.630746"/>
<path d="M466.725 368.338H422.28V412.782H466.725V368.338Z" stroke="#616161" stroke-opacity="0.3" stroke-width="0.630746"/>
<path d="M511.169 368.338H466.725V412.782H511.169V368.338Z" stroke="#616161" stroke-opacity="0.3" stroke-width="0.630746"/>
<path d="M555.613 368.338H511.169V412.782H555.613V368.338Z" stroke="#616161" stroke-opacity="0.3" stroke-width="0.630746"/>
<path d="M600.059 368.338H555.614V412.782H600.059V368.338Z" stroke="#616161" stroke-opacity="0.3" stroke-width="0.630746"/>
<path d="M644.503 368.338H600.059V412.782H644.503V368.338Z" stroke="#616161" stroke-opacity="0.3" stroke-width="0.630746"/>
<path d="M688.947 368.338H644.503V412.782H688.947V368.338Z" stroke="#616161" stroke-opacity="0.3" stroke-width="0.630746"/>
<path d="M733.392 368.338H688.947V412.782H733.392V368.338Z" stroke="#616161" stroke-opacity="0.3" stroke-width="0.630746"/>
<path d="M777.836 368.338H733.392V412.782H777.836V368.338Z" stroke="#616161" stroke-opacity="0.3" stroke-width="0.630746"/>
<path d="M822.28 368.338H777.836V412.782H822.28V368.338Z" stroke="#616161" stroke-opacity="0.3" stroke-width="0.630746"/>
<path d="M22.2804 412.782H-22.1641V457.227H22.2804V412.782Z" stroke="#616161" stroke-opacity="0.3" stroke-width="0.630746"/>
<path d="M66.7247 412.782H22.2803V457.227H66.7247V412.782Z" stroke="#616161" stroke-opacity="0.3" stroke-width="0.630746"/>
<path d="M111.169 412.782H66.7246V457.227H111.169V412.782Z" stroke="#616161" stroke-opacity="0.3" stroke-width="0.630746"/>
<path d="M155.613 412.782H111.169V457.227H155.613V412.782Z" stroke="#616161" stroke-opacity="0.3" stroke-width="0.630746"/>
<path d="M200.058 412.782H155.613V457.227H200.058V412.782Z" stroke="#616161" stroke-opacity="0.3" stroke-width="0.630746"/>
<path d="M244.503 412.782H200.059V457.227H244.503V412.782Z" stroke="#616161" stroke-opacity="0.3" stroke-width="0.630746"/>
<path d="M288.947 412.782H244.503V457.227H288.947V412.782Z" stroke="#616161" stroke-opacity="0.3" stroke-width="0.630746"/>
<path d="M333.392 412.782H288.947V457.227H333.392V412.782Z" stroke="#616161" stroke-opacity="0.3" stroke-width="0.630746"/>
<path d="M377.836 412.782H333.392V457.227H377.836V412.782Z" stroke="#616161" stroke-opacity="0.3" stroke-width="0.630746"/>
<path d="M422.28 412.782H377.836V457.227H422.28V412.782Z" stroke="#616161" stroke-opacity="0.3" stroke-width="0.630746"/>
<path d="M466.725 412.782H422.28V457.227H466.725V412.782Z" stroke="#616161" stroke-opacity="0.3" stroke-width="0.630746"/>
<path d="M511.169 412.782H466.725V457.227H511.169V412.782Z" stroke="#616161" stroke-opacity="0.3" stroke-width="0.630746"/>
<path d="M555.613 412.782H511.169V457.227H555.613V412.782Z" stroke="#616161" stroke-opacity="0.3" stroke-width="0.630746"/>
<path d="M600.059 412.782H555.614V457.227H600.059V412.782Z" stroke="#616161" stroke-opacity="0.3" stroke-width="0.630746"/>
<path d="M644.503 412.782H600.059V457.227H644.503V412.782Z" stroke="#616161" stroke-opacity="0.3" stroke-width="0.630746"/>
<path d="M688.947 412.782H644.503V457.227H688.947V412.782Z" stroke="#616161" stroke-opacity="0.3" stroke-width="0.630746"/>
<path d="M733.392 412.782H688.947V457.227H733.392V412.782Z" stroke="#616161" stroke-opacity="0.3" stroke-width="0.630746"/>
<path d="M777.836 412.782H733.392V457.227H777.836V412.782Z" stroke="#616161" stroke-opacity="0.3" stroke-width="0.630746"/>
<path d="M822.28 412.782H777.836V457.227H822.28V412.782Z" stroke="#616161" stroke-opacity="0.3" stroke-width="0.630746"/>
<path d="M22.2804 457.227H-22.1641V501.671H22.2804V457.227Z" stroke="#616161" stroke-opacity="0.3" stroke-width="0.630746"/>
<path d="M66.7247 457.227H22.2803V501.671H66.7247V457.227Z" stroke="#616161" stroke-opacity="0.3" stroke-width="0.630746"/>
<path d="M111.169 457.227H66.7246V501.671H111.169V457.227Z" stroke="#616161" stroke-opacity="0.3" stroke-width="0.630746"/>
<path d="M155.613 457.227H111.169V501.671H155.613V457.227Z" stroke="#616161" stroke-opacity="0.3" stroke-width="0.630746"/>
<path d="M200.058 457.227H155.613V501.671H200.058V457.227Z" stroke="#616161" stroke-opacity="0.3" stroke-width="0.630746"/>
<path d="M244.503 457.227H200.059V501.671H244.503V457.227Z" stroke="#616161" stroke-opacity="0.3" stroke-width="0.630746"/>
<path d="M288.947 457.227H244.503V501.671H288.947V457.227Z" stroke="#616161" stroke-opacity="0.3" stroke-width="0.630746"/>
<path d="M333.392 457.227H288.947V501.671H333.392V457.227Z" stroke="#616161" stroke-opacity="0.3" stroke-width="0.630746"/>
<path d="M377.836 457.227H333.392V501.671H377.836V457.227Z" stroke="#616161" stroke-opacity="0.3" stroke-width="0.630746"/>
<path d="M422.28 457.227H377.836V501.671H422.28V457.227Z" stroke="#616161" stroke-opacity="0.3" stroke-width="0.630746"/>
<path d="M466.725 457.227H422.28V501.671H466.725V457.227Z" stroke="#616161" stroke-opacity="0.3" stroke-width="0.630746"/>
<path d="M511.169 457.227H466.725V501.671H511.169V457.227Z" stroke="#616161" stroke-opacity="0.3" stroke-width="0.630746"/>
<path d="M555.613 457.227H511.169V501.671H555.613V457.227Z" stroke="#616161" stroke-opacity="0.3" stroke-width="0.630746"/>
<path d="M600.059 457.227H555.614V501.671H600.059V457.227Z" stroke="#616161" stroke-opacity="0.3" stroke-width="0.630746"/>
<path d="M644.503 457.227H600.059V501.671H644.503V457.227Z" stroke="#616161" stroke-opacity="0.3" stroke-width="0.630746"/>
<path d="M688.947 457.227H644.503V501.671H688.947V457.227Z" stroke="#616161" stroke-opacity="0.3" stroke-width="0.630746"/>
<path d="M733.392 457.227H688.947V501.671H733.392V457.227Z" stroke="#616161" stroke-opacity="0.3" stroke-width="0.630746"/>
<path d="M777.836 457.227H733.392V501.671H777.836V457.227Z" stroke="#616161" stroke-opacity="0.3" stroke-width="0.630746"/>
<path d="M822.28 457.227H777.836V501.671H822.28V457.227Z" stroke="#616161" stroke-opacity="0.3" stroke-width="0.630746"/>
<path d="M22.2804 501.671H-22.1641V546.116H22.2804V501.671Z" stroke="#616161" stroke-opacity="0.3" stroke-width="0.630746"/>
<path d="M66.7247 501.671H22.2803V546.116H66.7247V501.671Z" stroke="#616161" stroke-opacity="0.3" stroke-width="0.630746"/>
<path d="M111.169 501.671H66.7246V546.116H111.169V501.671Z" stroke="#616161" stroke-opacity="0.3" stroke-width="0.630746"/>
<path d="M155.613 501.671H111.169V546.116H155.613V501.671Z" stroke="#616161" stroke-opacity="0.3" stroke-width="0.630746"/>
<path d="M200.058 501.671H155.613V546.116H200.058V501.671Z" stroke="#616161" stroke-opacity="0.3" stroke-width="0.630746"/>
<path d="M244.503 501.671H200.059V546.116H244.503V501.671Z" stroke="#616161" stroke-opacity="0.3" stroke-width="0.630746"/>
<path d="M288.947 501.671H244.503V546.116H288.947V501.671Z" stroke="#616161" stroke-opacity="0.3" stroke-width="0.630746"/>
<path d="M333.392 501.671H288.947V546.116H333.392V501.671Z" stroke="#616161" stroke-opacity="0.3" stroke-width="0.630746"/>
<path d="M377.836 501.671H333.392V546.116H377.836V501.671Z" stroke="#616161" stroke-opacity="0.3" stroke-width="0.630746"/>
<path d="M422.28 501.671H377.836V546.116H422.28V501.671Z" stroke="#616161" stroke-opacity="0.3" stroke-width="0.630746"/>
<path d="M466.725 501.671H422.28V546.116H466.725V501.671Z" stroke="#616161" stroke-opacity="0.3" stroke-width="0.630746"/>
<path d="M511.169 501.671H466.725V546.116H511.169V501.671Z" stroke="#616161" stroke-opacity="0.3" stroke-width="0.630746"/>
<path d="M555.613 501.671H511.169V546.116H555.613V501.671Z" stroke="#616161" stroke-opacity="0.3" stroke-width="0.630746"/>
<path d="M600.059 501.671H555.614V546.116H600.059V501.671Z" stroke="#616161" stroke-opacity="0.3" stroke-width="0.630746"/>
<path d="M644.503 501.671H600.059V546.116H644.503V501.671Z" stroke="#616161" stroke-opacity="0.3" stroke-width="0.630746"/>
<path d="M688.947 501.671H644.503V546.116H688.947V501.671Z" stroke="#616161" stroke-opacity="0.3" stroke-width="0.630746"/>
<path d="M733.392 501.671H688.947V546.116H733.392V501.671Z" stroke="#616161" stroke-opacity="0.3" stroke-width="0.630746"/>
<path d="M777.836 501.671H733.392V546.116H777.836V501.671Z" stroke="#616161" stroke-opacity="0.3" stroke-width="0.630746"/>
<path d="M822.28 501.671H777.836V546.116H822.28V501.671Z" stroke="#616161" stroke-opacity="0.3" stroke-width="0.630746"/>
<path d="M22.2804 546.116H-22.1641V590.56H22.2804V546.116Z" stroke="#616161" stroke-opacity="0.3" stroke-width="0.630746"/>
<path d="M66.7247 546.116H22.2803V590.56H66.7247V546.116Z" stroke="#616161" stroke-opacity="0.3" stroke-width="0.630746"/>
<path d="M111.169 546.116H66.7246V590.56H111.169V546.116Z" stroke="#616161" stroke-opacity="0.3" stroke-width="0.630746"/>
<path d="M155.613 546.116H111.169V590.56H155.613V546.116Z" stroke="#616161" stroke-opacity="0.3" stroke-width="0.630746"/>
<path d="M200.058 546.116H155.613V590.56H200.058V546.116Z" stroke="#616161" stroke-opacity="0.3" stroke-width="0.630746"/>
<path d="M244.503 546.116H200.059V590.56H244.503V546.116Z" stroke="#616161" stroke-opacity="0.3" stroke-width="0.630746"/>
<path d="M288.947 546.116H244.503V590.56H288.947V546.116Z" stroke="#616161" stroke-opacity="0.3" stroke-width="0.630746"/>
<path d="M333.392 546.116H288.947V590.56H333.392V546.116Z" stroke="#616161" stroke-opacity="0.3" stroke-width="0.630746"/>
<path d="M377.836 546.116H333.392V590.56H377.836V546.116Z" stroke="#616161" stroke-opacity="0.3" stroke-width="0.630746"/>
<path d="M422.28 546.116H377.836V590.56H422.28V546.116Z" stroke="#616161" stroke-opacity="0.3" stroke-width="0.630746"/>
<path d="M466.725 546.116H422.28V590.56H466.725V546.116Z" stroke="#616161" stroke-opacity="0.3" stroke-width="0.630746"/>
<path d="M511.169 546.116H466.725V590.56H511.169V546.116Z" stroke="#616161" stroke-opacity="0.3" stroke-width="0.630746"/>
<path d="M555.613 546.116H511.169V590.56H555.613V546.116Z" stroke="#616161" stroke-opacity="0.3" stroke-width="0.630746"/>
<path d="M600.059 546.116H555.614V590.56H600.059V546.116Z" stroke="#616161" stroke-opacity="0.3" stroke-width="0.630746"/>
<path d="M644.503 546.116H600.059V590.56H644.503V546.116Z" stroke="#616161" stroke-opacity="0.3" stroke-width="0.630746"/>
<path d="M688.947 546.116H644.503V590.56H688.947V546.116Z" stroke="#616161" stroke-opacity="0.3" stroke-width="0.630746"/>
<path d="M733.392 546.116H688.947V590.56H733.392V546.116Z" stroke="#616161" stroke-opacity="0.3" stroke-width="0.630746"/>
<path d="M777.836 546.116H733.392V590.56H777.836V546.116Z" stroke="#616161" stroke-opacity="0.3" stroke-width="0.630746"/>
<path d="M822.28 546.116H777.836V590.56H822.28V546.116Z" stroke="#616161" stroke-opacity="0.3" stroke-width="0.630746"/>
<path d="M22.2804 590.56H-22.1641V635.005H22.2804V590.56Z" stroke="#616161" stroke-opacity="0.3" stroke-width="0.630746"/>
<path d="M66.7247 590.56H22.2803V635.005H66.7247V590.56Z" stroke="#616161" stroke-opacity="0.3" stroke-width="0.630746"/>
<path d="M111.169 590.56H66.7246V635.005H111.169V590.56Z" stroke="#616161" stroke-opacity="0.3" stroke-width="0.630746"/>
<path d="M155.613 590.56H111.169V635.005H155.613V590.56Z" stroke="#616161" stroke-opacity="0.3" stroke-width="0.630746"/>
<path d="M200.058 590.56H155.613V635.005H200.058V590.56Z" stroke="#616161" stroke-opacity="0.3" stroke-width="0.630746"/>
<path d="M244.503 590.56H200.059V635.005H244.503V590.56Z" stroke="#616161" stroke-opacity="0.3" stroke-width="0.630746"/>
<path d="M288.947 590.56H244.503V635.005H288.947V590.56Z" stroke="#616161" stroke-opacity="0.3" stroke-width="0.630746"/>
<path d="M333.392 590.56H288.947V635.005H333.392V590.56Z" stroke="#616161" stroke-opacity="0.3" stroke-width="0.630746"/>
<path d="M377.836 590.56H333.392V635.005H377.836V590.56Z" stroke="#616161" stroke-opacity="0.3" stroke-width="0.630746"/>
<path d="M422.28 590.56H377.836V635.005H422.28V590.56Z" stroke="#616161" stroke-opacity="0.3" stroke-width="0.630746"/>
<path d="M466.725 590.56H422.28V635.005H466.725V590.56Z" stroke="#616161" stroke-opacity="0.3" stroke-width="0.630746"/>
<path d="M511.169 590.56H466.725V635.005H511.169V590.56Z" stroke="#616161" stroke-opacity="0.3" stroke-width="0.630746"/>
<path d="M555.613 590.56H511.169V635.005H555.613V590.56Z" stroke="#616161" stroke-opacity="0.3" stroke-width="0.630746"/>
<path d="M600.059 590.56H555.614V635.005H600.059V590.56Z" stroke="#616161" stroke-opacity="0.3" stroke-width="0.630746"/>
<path d="M644.503 590.56H600.059V635.005H644.503V590.56Z" stroke="#616161" stroke-opacity="0.3" stroke-width="0.630746"/>
<path d="M688.947 590.56H644.503V635.005H688.947V590.56Z" stroke="#616161" stroke-opacity="0.3" stroke-width="0.630746"/>
<path d="M733.392 590.56H688.947V635.005H733.392V590.56Z" stroke="#616161" stroke-opacity="0.3" stroke-width="0.630746"/>
<path d="M777.836 590.56H733.392V635.005H777.836V590.56Z" stroke="#616161" stroke-opacity="0.3" stroke-width="0.630746"/>
<path d="M822.28 590.56H777.836V635.005H822.28V590.56Z" stroke="#616161" stroke-opacity="0.3" stroke-width="0.630746"/>
<path d="M22.2804 635.004H-22.1641V679.449H22.2804V635.004Z" stroke="#616161" stroke-opacity="0.3" stroke-width="0.630746"/>
<path d="M66.7247 635.004H22.2803V679.449H66.7247V635.004Z" stroke="#616161" stroke-opacity="0.3" stroke-width="0.630746"/>
<path d="M111.169 635.004H66.7246V679.449H111.169V635.004Z" stroke="#616161" stroke-opacity="0.3" stroke-width="0.630746"/>
<path d="M155.613 635.004H111.169V679.449H155.613V635.004Z" stroke="#616161" stroke-opacity="0.3" stroke-width="0.630746"/>
<path d="M200.058 635.004H155.613V679.449H200.058V635.004Z" stroke="#616161" stroke-opacity="0.3" stroke-width="0.630746"/>
<path d="M244.503 635.004H200.059V679.449H244.503V635.004Z" stroke="#616161" stroke-opacity="0.3" stroke-width="0.630746"/>
<path d="M288.947 635.004H244.503V679.449H288.947V635.004Z" stroke="#616161" stroke-opacity="0.3" stroke-width="0.630746"/>
<path d="M333.392 635.004H288.947V679.449H333.392V635.004Z" stroke="#616161" stroke-opacity="0.3" stroke-width="0.630746"/>
<path d="M377.836 635.004H333.392V679.449H377.836V635.004Z" stroke="#616161" stroke-opacity="0.3" stroke-width="0.630746"/>
<path d="M422.28 635.004H377.836V679.449H422.28V635.004Z" stroke="#616161" stroke-opacity="0.3" stroke-width="0.630746"/>
<path d="M466.725 635.004H422.28V679.449H466.725V635.004Z" stroke="#616161" stroke-opacity="0.3" stroke-width="0.630746"/>
<path d="M511.169 635.004H466.725V679.449H511.169V635.004Z" stroke="#616161" stroke-opacity="0.3" stroke-width="0.630746"/>
<path d="M555.613 635.004H511.169V679.449H555.613V635.004Z" stroke="#616161" stroke-opacity="0.3" stroke-width="0.630746"/>
<path d="M600.059 635.004H555.614V679.449H600.059V635.004Z" stroke="#616161" stroke-opacity="0.3" stroke-width="0.630746"/>
<path d="M644.503 635.004H600.059V679.449H644.503V635.004Z" stroke="#616161" stroke-opacity="0.3" stroke-width="0.630746"/>
<path d="M688.947 635.004H644.503V679.449H688.947V635.004Z" stroke="#616161" stroke-opacity="0.3" stroke-width="0.630746"/>
<path d="M733.392 635.004H688.947V679.449H733.392V635.004Z" stroke="#616161" stroke-opacity="0.3" stroke-width="0.630746"/>
<path d="M777.836 635.004H733.392V679.449H777.836V635.004Z" stroke="#616161" stroke-opacity="0.3" stroke-width="0.630746"/>
<path d="M822.28 635.004H777.836V679.449H822.28V635.004Z" stroke="#616161" stroke-opacity="0.3" stroke-width="0.630746"/>
<path d="M22.2804 679.449H-22.1641V723.893H22.2804V679.449Z" stroke="#616161" stroke-opacity="0.3" stroke-width="0.630746"/>
<path d="M66.7247 679.449H22.2803V723.893H66.7247V679.449Z" stroke="#616161" stroke-opacity="0.3" stroke-width="0.630746"/>
<path d="M111.169 679.449H66.7246V723.893H111.169V679.449Z" stroke="#616161" stroke-opacity="0.3" stroke-width="0.630746"/>
<path d="M155.613 679.449H111.169V723.893H155.613V679.449Z" stroke="#616161" stroke-opacity="0.3" stroke-width="0.630746"/>
<path d="M200.058 679.449H155.613V723.893H200.058V679.449Z" stroke="#616161" stroke-opacity="0.3" stroke-width="0.630746"/>
<path d="M244.503 679.449H200.059V723.893H244.503V679.449Z" stroke="#616161" stroke-opacity="0.3" stroke-width="0.630746"/>
<path d="M288.947 679.449H244.503V723.893H288.947V679.449Z" stroke="#616161" stroke-opacity="0.3" stroke-width="0.630746"/>
<path d="M333.392 679.449H288.947V723.893H333.392V679.449Z" stroke="#616161" stroke-opacity="0.3" stroke-width="0.630746"/>
<path d="M377.836 679.449H333.392V723.893H377.836V679.449Z" stroke="#616161" stroke-opacity="0.3" stroke-width="0.630746"/>
<path d="M422.28 679.449H377.836V723.893H422.28V679.449Z" stroke="#616161" stroke-opacity="0.3" stroke-width="0.630746"/>
<path d="M466.725 679.449H422.28V723.893H466.725V679.449Z" stroke="#616161" stroke-opacity="0.3" stroke-width="0.630746"/>
<path d="M511.169 679.449H466.725V723.893H511.169V679.449Z" stroke="#616161" stroke-opacity="0.3" stroke-width="0.630746"/>
<path d="M555.613 679.449H511.169V723.893H555.613V679.449Z" stroke="#616161" stroke-opacity="0.3" stroke-width="0.630746"/>
<path d="M600.059 679.449H555.614V723.893H600.059V679.449Z" stroke="#616161" stroke-opacity="0.3" stroke-width="0.630746"/>
<path d="M644.503 679.449H600.059V723.893H644.503V679.449Z" stroke="#616161" stroke-opacity="0.3" stroke-width="0.630746"/>
<path d="M688.947 679.449H644.503V723.893H688.947V679.449Z" stroke="#616161" stroke-opacity="0.3" stroke-width="0.630746"/>
<path d="M733.392 679.449H688.947V723.893H733.392V679.449Z" stroke="#616161" stroke-opacity="0.3" stroke-width="0.630746"/>
<path d="M777.836 679.449H733.392V723.893H777.836V679.449Z" stroke="#616161" stroke-opacity="0.3" stroke-width="0.630746"/>
<path d="M822.28 679.449H777.836V723.893H822.28V679.449Z" stroke="#616161" stroke-opacity="0.3" stroke-width="0.630746"/>
<path d="M22.2804 723.893H-22.1641V768.338H22.2804V723.893Z" stroke="#616161" stroke-opacity="0.3" stroke-width="0.630746"/>
<path d="M66.7247 723.893H22.2803V768.338H66.7247V723.893Z" stroke="#616161" stroke-opacity="0.3" stroke-width="0.630746"/>
<path d="M111.169 723.893H66.7246V768.338H111.169V723.893Z" stroke="#616161" stroke-opacity="0.3" stroke-width="0.630746"/>
<path d="M155.613 723.893H111.169V768.338H155.613V723.893Z" stroke="#616161" stroke-opacity="0.3" stroke-width="0.630746"/>
<path d="M200.058 723.893H155.613V768.338H200.058V723.893Z" stroke="#616161" stroke-opacity="0.3" stroke-width="0.630746"/>
<path d="M244.503 723.893H200.059V768.338H244.503V723.893Z" stroke="#616161" stroke-opacity="0.3" stroke-width="0.630746"/>
<path d="M288.947 723.893H244.503V768.338H288.947V723.893Z" stroke="#616161" stroke-opacity="0.3" stroke-width="0.630746"/>
<path d="M333.392 723.893H288.947V768.338H333.392V723.893Z" stroke="#616161" stroke-opacity="0.3" stroke-width="0.630746"/>
<path d="M377.836 723.893H333.392V768.338H377.836V723.893Z" stroke="#616161" stroke-opacity="0.3" stroke-width="0.630746"/>
<path d="M422.28 723.893H377.836V768.338H422.28V723.893Z" stroke="#616161" stroke-opacity="0.3" stroke-width="0.630746"/>
<path d="M466.725 723.893H422.28V768.338H466.725V723.893Z" stroke="#616161" stroke-opacity="0.3" stroke-width="0.630746"/>
<path d="M511.169 723.893H466.725V768.338H511.169V723.893Z" stroke="#616161" stroke-opacity="0.3" stroke-width="0.630746"/>
<path d="M555.613 723.893H511.169V768.338H555.613V723.893Z" stroke="#616161" stroke-opacity="0.3" stroke-width="0.630746"/>
<path d="M600.059 723.893H555.614V768.338H600.059V723.893Z" stroke="#616161" stroke-opacity="0.3" stroke-width="0.630746"/>
<path d="M644.503 723.893H600.059V768.338H644.503V723.893Z" stroke="#616161" stroke-opacity="0.3" stroke-width="0.630746"/>
<path d="M688.947 723.893H644.503V768.338H688.947V723.893Z" stroke="#616161" stroke-opacity="0.3" stroke-width="0.630746"/>
<path d="M733.392 723.893H688.947V768.338H733.392V723.893Z" stroke="#616161" stroke-opacity="0.3" stroke-width="0.630746"/>
<path d="M777.836 723.893H733.392V768.338H777.836V723.893Z" stroke="#616161" stroke-opacity="0.3" stroke-width="0.630746"/>
<path d="M822.28 723.893H777.836V768.338H822.28V723.893Z" stroke="#616161" stroke-opacity="0.3" stroke-width="0.630746"/>
<path d="M22.2804 768.338H-22.1641V812.782H22.2804V768.338Z" stroke="#616161" stroke-opacity="0.3" stroke-width="0.630746"/>
<path d="M66.7247 768.338H22.2803V812.782H66.7247V768.338Z" stroke="#616161" stroke-opacity="0.3" stroke-width="0.630746"/>
<path d="M111.169 768.338H66.7246V812.782H111.169V768.338Z" stroke="#616161" stroke-opacity="0.3" stroke-width="0.630746"/>
<path d="M155.613 768.338H111.169V812.782H155.613V768.338Z" stroke="#616161" stroke-opacity="0.3" stroke-width="0.630746"/>
<path d="M200.058 768.338H155.613V812.782H200.058V768.338Z" stroke="#616161" stroke-opacity="0.3" stroke-width="0.630746"/>
<path d="M244.503 768.338H200.059V812.782H244.503V768.338Z" stroke="#616161" stroke-opacity="0.3" stroke-width="0.630746"/>
<path d="M288.947 768.338H244.503V812.782H288.947V768.338Z" stroke="#616161" stroke-opacity="0.3" stroke-width="0.630746"/>
<path d="M333.392 768.338H288.947V812.782H333.392V768.338Z" stroke="#616161" stroke-opacity="0.3" stroke-width="0.630746"/>
<path d="M377.836 768.338H333.392V812.782H377.836V768.338Z" stroke="#616161" stroke-opacity="0.3" stroke-width="0.630746"/>
<path d="M422.28 768.338H377.836V812.782H422.28V768.338Z" stroke="#616161" stroke-opacity="0.3" stroke-width="0.630746"/>
<path d="M466.725 768.338H422.28V812.782H466.725V768.338Z" stroke="#616161" stroke-opacity="0.3" stroke-width="0.630746"/>
<path d="M511.169 768.338H466.725V812.782H511.169V768.338Z" stroke="#616161" stroke-opacity="0.3" stroke-width="0.630746"/>
<path d="M555.613 768.338H511.169V812.782H555.613V768.338Z" stroke="#616161" stroke-opacity="0.3" stroke-width="0.630746"/>
<path d="M600.059 768.338H555.614V812.782H600.059V768.338Z" stroke="#616161" stroke-opacity="0.3" stroke-width="0.630746"/>
<path d="M644.503 768.338H600.059V812.782H644.503V768.338Z" stroke="#616161" stroke-opacity="0.3" stroke-width="0.630746"/>
<path d="M688.947 768.338H644.503V812.782H688.947V768.338Z" stroke="#616161" stroke-opacity="0.3" stroke-width="0.630746"/>
<path d="M733.392 768.338H688.947V812.782H733.392V768.338Z" stroke="#616161" stroke-opacity="0.3" stroke-width="0.630746"/>
<path d="M777.836 768.338H733.392V812.782H777.836V768.338Z" stroke="#616161" stroke-opacity="0.3" stroke-width="0.630746"/>
<path d="M822.28 768.338H777.836V812.782H822.28V768.338Z" stroke="#616161" stroke-opacity="0.3" stroke-width="0.630746"/>
</g>
<defs>
<clipPath id="clip0_1272_62">
<rect width="800" height="800" fill="white"/>
</clipPath>
</defs>
</svg>
